{"title":"Later,Live With Jools Holland (BBC2,Crowded House,Kelis,)s36eo5[","uid":5554131,"size":353757981,"categoryP":"video","categoryS":"music_videos","magnet":"?xt=urn:btih:7087e931ccb9712703d2d48099ddc96689b0e18a&amp;dn=Later%2CLive+With+Jools+Holland+%28BBC2%2CCrowded+House%2CKelis%2C%29s36eo5%5B&amp;tr=udp%3A%2F%2Ftracker.openbittorrent.com%3A80&amp;tr=udp%3A%2F%2Fopen.demonii.com%3A1337&amp;tr=udp%3A%2F%2Ftracker.coppersurfer.tk%3A6969&amp;tr=udp%3A%2F%2Fexodus.desync.com%3A6969","seeders":1,"leechers":0,"uploader":"seanprince","files":-1,"time":1273632343,"description":"Later,Live With Jools Holland (BBC2,Crowded House,Kelis,)s36eo5[DTV-RIP-Divx]\n\nFirst Shown On BBC 2 On Tuesday 11th May 2010\n\n\nDescription:\n\nJoining Jools are James Murphy's LCD Soundsystem performing tracks from their third album This Is Happening; from Melbourne, Australia, Crowded House, led by original member Neil Finn, with tracks from their new album Intriguer; Kelis, performing tracks from her new Fleshtone album; and Brooklyn-based five-piece The National, with music from their new High Violet long player. Plus Pete Molinari, a country blues singer from Chatham in Kent, makes his debut on Later to play songs from his third album, A Train Bound For Glory.\n\nGeneral\n\nComplete name : Later, Live With Jools Holland.s36eo5..divx\nFormat : AVI\nFormat/Info : Audio Video Interleave\nFile size : 337 MiB\nDuration : 30mn 7s\nOverall bit rate : 1 566 Kbps\n\nVideo\nID : 0\nFormat : MPEG-4 Visual\nFormat settings, BVOP : Yes\nFormat settings, QPel : No\nFormat settings, GMC : No warppoints\nFormat settings, Matrix : Default (H.263)\nMuxing mode : Packed bitstream\nCodec ID : DX50\nCodec ID/Hint : DivX 5\nDuration : 30mn 7s\nBit rate : 1 300 Kbps\nWidth : 684 pixels\nHeight : 384 pixels\nDisplay aspect ratio : 16/9\nFrame rate : 25.000 fps\nResolution : 24 bits\nColorimetry : 4:2:0\nScan type : Progressive\nBits/(Pixel*Frame) : 0.198\nStream size : 280 MiB (83%)\nTitle : Video\nWriting library : DivX 6.8.2 (UTC 2008-05-17)\n\nAudio\nID : 1\nFormat : AC-3\nFormat/Info : Audio Coding 3\nCodec ID : 2000\nDuration : 30mn 6s\nBit rate mode : Constant\nBit rate : 256 Kbps\nChannel(s) : 2 channels\nChannel positions : L R\nSampling rate : 48.0 KHz\nStream size : 55.1 MiB (16%)\nAlignment : Split accross interleaves\nInterleave, duration : 40 ms (1.00 video frame)\nInterleave, preload duration : 500 ms ","torrent":{"xt":"urn:btih:7087e931ccb9712703d2d48099ddc96689b0e18a","amp;dn":"Later%2CLive+With+Jools+Holland+%28BBC2%2CCrowded+House%2CKelis%2C%29s36eo5%5B","amp;tr":["udp%3A%2F%2Ftracker.openbittorrent.com%3A80","udp%3A%2F%2Fopen.demonii.com%3A1337","udp%3A%2F%2Ftracker.coppersurfer.tk%3A6969","udp%3A%2F%2Fexodus.desync.com%3A6969"],"infoHash":"7087e931ccb9712703d2d48099ddc96689b0e18a","infoHashBuffer":{"type":"Buffer","data":[112,135,233,49,204,185,113,39,3,210,212,128,153,221,201,102,137,176,225,138]},"announce":[],"urlList":[]}}